<svg version="1.1" id="Layer_1" xmlns="http://www.w3.org/2000/svg" xmlns:xlink="http://www.w3.org/1999/xlink" x="0px" y="0px"
	 width="100%" viewBox="0 0 512 512" enable-background="new 0 0 512 512" xml:space="preserve">
<path fill="#000000" opacity="1.000000" stroke="none" 
	d="
M283.000000,1.000000 
	C359.625641,1.000000 436.251312,1.000000 512.938477,1.000000 
	C512.938477,171.666656 512.938477,342.333344 512.938477,513.000000 
	C487.910553,513.000000 462.923920,513.000000 437.175293,512.709534 
	C446.606598,506.360474 449.188416,497.192657 449.169067,485.748657 
	C448.929962,344.335358 449.013031,202.921494 449.013000,61.507767 
	C449.013000,53.346081 449.158203,45.181026 448.969482,37.023705 
	C448.800598,29.725044 445.772217,24.010855 439.508392,19.750856 
	C432.461761,14.958500 424.766296,16.041140 416.617279,16.077085 
	C406.091217,16.065800 396.041718,16.113569 385.529358,16.086636 
	C364.403992,16.062981 343.741577,16.114029 322.613800,16.069502 
	C314.089844,16.042404 306.031250,16.110880 297.568359,16.116989 
	C293.897980,16.930670 292.567596,14.419826 291.085876,12.422006 
	C288.307648,8.676169 285.686493,4.813866 283.000000,1.000000 
z"/>
<path fill="#000000" opacity="1.000000" stroke="none" 
	d="
M77.000000,513.000000 
	C51.680222,513.000000 26.360441,513.000000 1.020330,513.000000 
	C1.020330,342.438202 1.020330,171.876389 1.020330,1.000000 
	C77.353943,1.000000 153.708313,1.000000 230.857330,1.256372 
	C228.448776,5.501451 225.394943,9.625917 221.960663,13.404606 
	C220.772491,14.711953 218.662231,15.828634 216.933685,15.888285 
	C208.288651,16.186615 199.630508,16.104919 190.512970,16.090986 
	C159.021683,16.070028 127.994377,16.114933 96.508415,16.082527 
	C93.717461,16.003731 91.375877,16.137594 89.054413,15.978334 
	C76.058342,15.086768 64.814674,24.226517 64.842262,39.838593 
	C65.107269,189.772827 65.023529,339.707733 64.946251,489.642395 
	C64.941475,498.920868 67.990997,506.189941 76.091652,511.081543 
	C76.596512,511.386353 76.706367,512.345337 77.000000,513.000000 
z"/>
<path fill="#D7804B" opacity="1.000000" stroke="none" 
	d="
M77.468658,513.000000 
	C76.706367,512.345337 76.596512,511.386353 76.091652,511.081543 
	C67.990997,506.189941 64.941475,498.920868 64.946251,489.642395 
	C65.023529,339.707733 65.107269,189.772827 64.842262,39.838593 
	C64.814674,24.226517 76.058342,15.086768 89.054413,15.978334 
	C91.375877,16.137594 93.717461,16.003731 96.471413,16.538837 
	C96.873093,17.905296 96.835632,18.738131 96.835617,19.570965 
	C96.832733,169.213577 96.832375,318.856201 96.834648,468.498810 
	C96.834671,469.664917 96.804596,470.836700 96.902878,471.996155 
	C97.336700,477.114136 100.164291,480.308380 105.087372,481.408966 
	C107.327141,481.909698 109.715935,481.862457 112.037186,481.863007 
	C196.356964,481.883423 280.676727,481.883179 364.996521,481.874481 
	C371.993622,481.873779 378.990753,481.793671 386.449097,481.842834 
	C392.538666,481.955109 398.179382,481.749939 403.791870,482.058044 
	C409.452271,482.368744 413.779327,480.481140 416.875732,476.193909 
	C416.943329,481.646301 416.917969,486.614349 417.011292,491.580200 
	C417.126923,497.733734 415.089661,503.007477 410.419250,507.011780 
	C407.815460,509.244202 404.819305,511.018982 402.000000,513.000000 
	C293.979095,513.000000 185.958206,513.000000 77.468658,513.000000 
z"/>
<path fill="#C96F39" opacity="1.000000" stroke="none" 
	d="
M402.468658,513.000000 
	C404.819305,511.018982 407.815460,509.244202 410.419250,507.011780 
	C415.089661,503.007477 417.126923,497.733734 417.011292,491.580200 
	C416.917969,486.614349 416.943329,481.646301 416.919403,475.746460 
	C417.084229,472.157715 417.386505,469.501801 417.386932,466.845825 
	C417.409363,323.931641 417.410950,181.017471 417.392700,38.103294 
	C417.391754,30.780899 417.197906,23.458527 417.093872,16.136143 
	C424.766296,16.041140 432.461761,14.958500 439.508392,19.750856 
	C445.772217,24.010855 448.800598,29.725044 448.969482,37.023705 
	C449.158203,45.181026 449.013000,53.346081 449.013000,61.507767 
	C449.013031,202.921494 448.929962,344.335358 449.169067,485.748657 
	C449.188416,497.192657 446.606598,506.360474 436.706635,512.709534 
	C425.645782,513.000000 414.291534,513.000000 402.468658,513.000000 
z"/>
<path fill="#A8D3D8" opacity="1.000000" stroke="none" 
	d="
M190.976974,16.156849 
	C199.630508,16.104919 208.288651,16.186615 216.933685,15.888285 
	C218.662231,15.828634 220.772491,14.711953 221.960663,13.404606 
	C225.394943,9.625917 228.448776,5.501451 231.325989,1.256372 
	C248.020889,1.000000 265.041779,1.000000 282.531342,1.000000 
	C285.686493,4.813866 288.307648,8.676169 291.085876,12.422006 
	C292.567596,14.419826 293.897980,16.930670 297.671112,16.434883 
	C305.178406,24.335909 305.138550,39.092060 297.621094,47.913803 
	C286.517303,47.952396 275.886597,47.953098 265.255890,47.952904 
	C241.668869,47.952465 218.081802,47.978168 194.494858,47.934650 
	C187.430069,47.921619 184.153748,44.592812 184.045227,37.564346 
	C184.001648,34.741207 184.228256,31.900978 183.995926,29.096357 
	C183.507462,23.199554 185.326584,18.678558 190.976974,16.156849 
z"/>
<path fill="#EEF5F6" opacity="1.000000" stroke="none" 
	d="
M190.512970,16.090984 
	C185.326584,18.678558 183.507462,23.199554 183.995926,29.096357 
	C184.228256,31.900978 184.001648,34.741207 184.045227,37.564346 
	C184.153748,44.592812 187.430069,47.921619 194.494858,47.934650 
	C218.081802,47.978168 241.668869,47.952465 265.255890,47.952904 
	C275.886597,47.953098 286.517303,47.952396 298.080292,47.946640 
	C306.288910,47.947044 313.567383,48.062283 320.840942,47.923191 
	C326.379395,47.817284 329.731323,44.412594 329.947479,38.891926 
	C330.083221,35.424271 329.724152,31.923922 330.039154,28.479584 
	C330.572113,22.651852 328.501831,18.517529 323.079132,16.165075 
	C343.741577,16.114029 364.403992,16.062981 385.533020,16.545109 
	C385.996674,73.363457 385.993713,129.648621 385.527039,186.002533 
	C376.898956,186.086395 368.733795,186.036560 360.570587,186.138824 
	C354.870300,186.210220 351.430145,189.279083 351.542542,193.923386 
	C351.651062,198.408264 354.890808,201.052826 360.489807,201.115067 
	C368.983795,201.209473 377.478394,201.246353 385.977173,201.755829 
	C385.979309,207.189270 385.976990,212.174561 385.513367,217.241791 
	C330.723602,217.343018 276.395142,217.359238 222.066711,217.393951 
	C220.074341,217.395218 218.034897,217.340286 216.099731,217.725372 
	C212.154678,218.510391 209.945587,221.114746 210.078232,225.136169 
	C210.209885,229.127365 212.490173,231.608459 216.515106,232.179214 
	C218.154068,232.411621 219.838699,232.370316 221.502594,232.371414 
	C239.667755,232.383484 257.832916,232.364502 275.998077,232.382614 
	C312.659973,232.419144 349.321869,232.473389 385.984833,232.955826 
	C385.999664,238.670166 386.013397,243.949036 385.566833,249.336243 
	C376.481812,249.476608 367.851868,249.335327 359.234222,249.598373 
	C352.925385,249.790955 349.116272,256.020294 352.732330,260.610046 
	C354.453979,262.795197 358.218811,264.223297 361.166443,264.427094 
	C369.419952,264.997711 377.729889,264.752045 386.014771,265.304718 
	C386.001190,270.726135 385.990387,275.671326 385.517883,280.693115 
	C330.617645,280.783295 276.179077,280.796173 221.740509,280.813293 
	C220.076385,280.813812 218.402969,280.754547 216.750031,280.902985 
	C212.904846,281.248413 210.614639,283.563782 210.112274,287.222015 
	C209.571411,291.160553 211.407150,294.111877 215.286545,295.225464 
	C217.313995,295.807465 219.552597,295.808136 221.695999,295.809296 
	C274.469940,295.838257 327.243896,295.829895 380.017853,295.840393 
	C382.010925,295.840790 384.004028,295.962616 385.999329,296.493042 
	C385.992004,302.201385 385.982422,307.444489 385.510498,312.756287 
	C377.050232,312.841522 369.052277,312.839783 361.054504,312.880585 
	C354.989014,312.911499 351.689972,315.409088 351.543243,320.005493 
	C351.390411,324.792725 354.948303,327.800262 361.007568,327.875000 
	C369.334961,327.977692 377.663269,328.004547 385.994934,328.526215 
	C385.992828,333.939941 385.986969,338.891327 385.517334,343.904907 
	C330.626770,343.978271 276.199982,343.988220 221.773209,344.005646 
	C219.943878,344.006226 218.059570,343.814087 216.296555,344.176788 
	C212.439163,344.970490 210.077271,347.426849 210.063217,351.467316 
	C210.049179,355.503448 212.384476,357.972168 216.234512,358.817657 
	C217.829742,359.167938 219.548508,358.993347 221.211105,358.993774 
	C250.172211,359.001556 279.133362,358.979065 308.094421,359.005554 
	C334.056671,359.029327 360.018890,359.104645 385.987549,359.614685 
	C385.991577,365.336761 385.989197,370.601440 385.523438,375.934937 
	C376.942261,376.012817 368.824219,375.987396 360.706757,376.042664 
	C354.951599,376.081848 351.526825,378.921753 351.511200,383.524567 
	C351.495453,388.169373 354.862122,390.975098 360.643646,391.031403 
	C369.089722,391.113647 377.536407,391.139801 385.987305,391.644714 
	C385.993530,397.057068 385.995270,402.014557 385.534302,407.051392 
	C330.633301,407.143127 276.194946,407.149780 221.756638,407.189392 
	C219.611877,407.190948 217.373734,407.174835 215.342804,407.747559 
	C211.466354,408.840607 209.593750,411.762360 210.105179,415.713654 
	C210.579819,419.380829 212.853424,421.708435 216.688324,422.088959 
	C218.338669,422.252716 220.014069,422.186371 221.678085,422.186554 
	C265.794922,422.190674 309.911743,422.177582 354.028564,422.198669 
	C364.678833,422.203735 375.329010,422.319000 385.980103,422.828217 
	C385.983276,442.765381 385.985565,462.257904 385.987854,481.750458 
	C378.990753,481.793671 371.993622,481.873779 364.996521,481.874481 
	C280.676727,481.883179 196.356964,481.883423 112.037186,481.863007 
	C109.715935,481.862457 107.327141,481.909698 105.087372,481.408966 
	C100.164291,480.308380 97.336700,477.114136 96.902878,471.996155 
	C96.804596,470.836700 96.834671,469.664917 96.834648,468.498810 
	C96.832375,318.856201 96.832733,169.213577 96.835617,19.570965 
	C96.835632,18.738131 96.873093,17.905296 96.930077,16.616150 
	C127.994377,16.114933 159.021683,16.070028 190.512970,16.090984 
M206.395493,142.343201 
	C211.683090,142.123840 217.020111,142.278030 222.245209,141.586472 
	C228.193542,140.799164 231.312698,142.806961 232.967499,148.681244 
	C234.590714,154.443359 238.554764,156.431290 243.039856,154.891663 
	C247.319519,153.422546 248.944992,148.995331 246.944412,143.669556 
	C240.393784,126.231110 233.714111,108.840935 227.216583,91.382889 
	C225.667236,87.219994 223.156662,84.330391 218.643631,84.222565 
	C213.866425,84.108414 211.196793,87.067314 209.593323,91.418823 
	C205.798111,101.718285 201.815308,111.948631 197.906662,122.206261 
	C195.122879,129.511826 192.261765,136.789093 189.577133,144.130890 
	C187.788040,149.023590 189.276276,153.115860 193.158173,154.738937 
	C197.373260,156.501297 201.382217,154.544067 203.487656,149.622787 
	C204.403015,147.483170 205.186264,145.287033 206.395493,142.343201 
M298.569092,87.832481 
	C290.948547,84.086166 283.111267,82.838753 274.914429,85.793167 
	C266.802094,88.717110 261.416687,95.598526 260.992584,103.570526 
	C260.550110,111.888191 264.411377,117.884567 273.089478,121.731308 
	C278.249054,124.018394 283.775024,125.542465 288.757751,128.136612 
	C291.026764,129.317947 292.379395,132.259323 294.147705,134.402359 
	C291.694977,136.307968 289.479248,139.299286 286.741058,139.897049 
	C280.721527,141.211136 275.433655,138.762497 270.887756,134.494858 
	C267.207153,131.039536 262.811951,131.282364 259.847137,134.622818 
	C257.055359,137.768341 257.293060,141.858002 260.664551,145.312515 
	C267.708344,152.529785 276.414154,155.606506 286.387665,155.242249 
	C297.629181,154.831680 307.285522,147.223373 308.981720,137.541809 
	C310.789978,127.220352 305.457001,118.662537 294.107422,113.893364 
	C289.361450,111.899071 284.445068,110.292839 279.777924,108.138191 
	C278.255951,107.435555 276.039642,105.167412 276.312714,104.294815 
	C276.855682,102.559570 278.664978,100.738220 280.398834,99.989838 
	C282.234436,99.197540 284.759277,99.047867 286.681732,99.623680 
	C289.967804,100.607918 293.069794,102.276436 296.155731,103.841675 
	C299.989685,105.786331 303.281097,105.208511 305.947388,101.919815 
	C308.477386,98.799248 307.941620,94.428101 304.672485,91.670586 
	C303.034729,90.289131 301.079956,89.283478 298.569092,87.832481 
M324.103577,85.521873 
	C323.030975,87.996170 321.066193,90.457039 321.028687,92.946907 
	C320.760406,110.767738 320.855957,128.594559 320.900391,146.419296 
	C320.914612,152.127060 323.497589,155.143661 328.169006,155.232071 
	C332.948853,155.322525 335.773865,152.069153 335.882812,146.228409 
	C335.948914,142.684677 335.895020,139.138702 335.895020,134.684967 
	C337.635773,136.277802 338.493164,137.028534 339.313141,137.818115 
	C344.472626,142.786469 349.552460,147.840393 354.802124,152.711349 
	C358.489380,156.132584 362.914734,156.120239 365.906250,152.987778 
	C368.943665,149.807281 368.690796,145.684433 365.151611,141.908844 
	C363.786194,140.452225 362.225403,139.177643 360.872925,137.710159 
	C354.710938,131.024261 348.591461,124.299210 342.378632,117.502861 
	C343.417297,116.543480 345.247528,114.850975 347.079865,113.160789 
	C352.589386,108.078705 358.215454,103.115623 363.567596,97.872864 
	C366.918396,94.590538 366.814972,90.221382 363.818756,87.181557 
	C360.968353,84.289650 356.998169,84.165024 353.474762,86.953369 
	C352.041473,88.087631 350.737885,89.386803 349.386261,90.622963 
	C345.180603,94.469482 340.980194,98.321747 335.890381,102.984726 
	C335.890381,98.653778 335.982666,95.694168 335.871765,92.742203 
	C335.615295,85.914864 331.457977,83.092033 324.103577,85.521873 
M209.998245,256.618164 
	C210.948990,262.460236 212.953659,264.532135 218.821793,264.546722 
	C253.924042,264.634003 289.026703,264.628998 324.128967,264.555817 
	C330.014557,264.543549 333.196625,261.541656 333.073669,256.784088 
	C332.954895,252.187286 329.908997,249.548401 324.191193,249.540588 
	C289.088745,249.492584 253.986206,249.528336 218.883728,249.501389 
	C214.356567,249.497910 211.151505,251.143021 209.998245,256.618164 
M311.497833,201.127289 
	C316.325562,201.114807 321.161041,201.267426 325.978638,201.040268 
	C330.228485,200.839859 332.760193,198.349380 333.002747,194.079224 
	C333.248138,189.759064 330.789001,187.247711 326.731506,186.331787 
	C325.296265,186.007782 323.750854,186.121094 322.255737,186.120667 
	C288.460510,186.111053 254.665298,186.106522 220.870102,186.132401 
	C219.054642,186.133804 217.151138,186.111694 215.441940,186.618057 
	C211.603058,187.755310 209.642731,190.579483 210.100632,194.552505 
	C210.526428,198.246964 212.812378,200.563599 216.610382,201.018417 
	C218.254044,201.215256 219.935013,201.123550 221.599045,201.123825 
	C251.232285,201.128586 280.865540,201.127335 311.497833,201.127289 
M282.500000,327.886963 
	C290.157715,327.886993 297.815430,327.891754 305.473145,327.885529 
	C312.131805,327.880096 318.796875,328.036041 325.446960,327.791016 
	C330.177979,327.616730 333.080750,324.448303 333.056458,320.210297 
	C333.032074,315.957275 330.050415,313.145020 325.280029,312.890442 
	C324.615845,312.854950 323.948578,312.873810 323.282715,312.873810 
	C288.822968,312.873138 254.363235,312.872253 219.903503,312.877136 
	C218.739166,312.877289 217.208206,312.473938 216.478424,313.053009 
	C214.181168,314.875854 211.228287,316.724060 210.305359,319.219421 
	C209.051727,322.608917 211.138947,325.766998 214.706406,327.074982 
	C216.517059,327.738861 218.606796,327.848785 220.571259,327.853882 
	C240.880737,327.906555 261.190399,327.886627 282.500000,327.886963 
M320.370605,391.037598 
	C322.368652,391.018311 324.394592,391.203857 326.358887,390.936584 
	C330.286224,390.402222 332.746277,388.112274 333.014587,384.065552 
	C333.301178,379.743622 330.914337,377.221130 326.879486,376.206116 
	C325.774414,375.928101 324.561371,376.039642 323.397858,376.039429 
	C288.756958,376.032501 254.116058,376.032227 219.475159,376.042023 
	C218.313477,376.042358 217.098618,375.960693 215.999802,376.256378 
	C212.193436,377.280731 209.911453,379.750916 210.060135,383.801575 
	C210.207932,387.828491 212.591904,390.203918 216.488785,390.920105 
	C217.942596,391.187317 219.477875,391.033783 220.975998,391.033997 
	C253.784927,391.038452 286.593842,391.037506 320.370605,391.037598 
M146.033966,90.778214 
	C146.277725,101.641029 155.149994,98.345703 161.418137,99.420143 
	C161.418137,101.742973 161.418060,103.558144 161.418167,105.373322 
	C161.418900,118.857689 161.432449,132.342072 161.412735,145.826401 
	C161.406723,149.936905 162.295410,153.554886 166.745377,154.942627 
	C172.116119,156.617554 176.402603,152.913467 176.457779,146.338043 
	C176.573685,132.521683 176.488998,118.703720 176.511902,104.886452 
	C176.514832,103.117455 176.668198,101.348694 176.772934,99.134636 
	C179.015289,99.134636 180.815201,99.154984 182.614502,99.130913 
	C188.505463,99.052116 191.902817,96.384628 191.976944,91.800926 
	C192.051865,87.168053 188.601227,84.171082 182.867050,84.128036 
	C173.545044,84.058052 164.222000,84.138489 154.899673,84.095627 
	C150.595779,84.075836 147.501007,85.712090 146.033966,90.778214 
M160.620850,195.113922 
	C155.020813,200.793121 149.420792,206.472336 143.118179,212.864059 
	C139.628387,209.032379 136.668091,205.403046 133.305099,202.196014 
	C129.931610,198.979019 125.491196,199.184067 122.585815,202.195663 
	C119.795189,205.088333 119.613625,209.327957 122.662003,212.564423 
	C127.686295,217.898743 132.903152,223.061081 138.209488,228.116821 
	C141.252487,231.016144 145.152939,231.452179 148.159821,228.567886 
	C157.775452,219.344299 167.202271,209.912354 176.409302,200.281067 
	C179.316757,197.239624 178.760132,193.366928 175.733231,190.407898 
	C172.869354,187.608231 169.444458,187.406372 166.204865,189.818954 
	C164.349976,191.200363 162.806549,193.000000 160.620850,195.113922 
M137.201584,269.293121 
	C136.259308,268.352264 135.335464,267.392059 134.371582,266.473877 
	C130.069916,262.376190 125.916458,262.045105 122.586258,265.517578 
	C119.482224,268.754211 119.839607,273.022614 123.705849,276.988281 
	C128.120865,281.516815 132.589691,285.995148 137.119080,290.409210 
	C141.683151,294.857086 145.370361,294.810211 150.048157,290.269287 
	C153.988983,286.443787 157.833817,282.519287 161.712448,278.629913 
	C166.413483,273.915863 171.214966,269.295319 175.763809,264.438354 
	C178.946503,261.040100 178.799911,256.598297 175.826309,253.712540 
	C172.909348,250.881744 168.487015,250.987045 165.067688,254.091232 
	C163.097961,255.879440 161.261215,257.815796 159.390167,259.710724 
	C154.186890,264.980377 148.996994,270.263214 143.113541,276.240051 
	C140.913940,273.619141 139.310669,271.708801 137.201584,269.293121 
M130.299469,321.734283 
	C129.563202,323.002563 128.232178,324.251434 128.190125,325.542297 
	C127.967873,332.362854 127.599579,339.246002 128.344986,345.989929 
	C128.570465,348.030029 132.032623,351.002991 134.289688,351.278870 
	C140.360748,352.020996 146.588760,351.718903 152.740265,351.474335 
	C156.507278,351.324554 159.006958,349.193817 159.063049,345.136627 
	C159.148239,338.974579 159.503479,332.766327 158.861740,326.670593 
	C158.629913,324.468506 155.944321,320.856598 154.226364,320.765808 
	C146.500809,320.357544 138.720566,320.983704 130.299469,321.734283 
M159.108582,395.593567 
	C159.108246,394.596313 159.113632,393.599060 159.106659,392.601837 
	C159.055923,385.351807 157.485641,383.690643 150.413376,383.629425 
	C145.095779,383.583374 139.774399,383.553833 134.459930,383.703033 
	C130.287247,383.820160 128.049744,386.141144 128.010147,390.346832 
	C127.955368,396.163513 127.977882,401.981110 127.999535,407.798187 
	C128.016083,412.241516 130.397339,414.666748 134.715561,414.809814 
	C140.526291,415.002319 146.351059,414.979980 152.164032,414.828491 
	C156.740799,414.709229 159.150299,412.234131 159.107849,407.535004 
	C159.074799,403.878784 159.106003,400.222015 159.108582,395.593567 
z"/>
<path fill="#DBEAF0" opacity="1.000000" stroke="none" 
	d="
M386.027130,249.227905 
	C386.013397,243.949036 385.999664,238.670166 386.359802,232.848495 
	C390.818512,231.573456 393.218079,229.277756 393.304077,224.999008 
	C393.403503,220.055298 390.042419,218.255478 385.974670,217.159851 
	C385.976990,212.174561 385.979309,207.189270 386.348236,201.657959 
	C390.853119,200.432434 393.210449,198.039658 393.298584,193.814621 
	C393.400360,188.936203 390.160858,186.955658 385.990784,185.933792 
	C385.993713,129.648621 385.996674,73.363457 385.995941,16.619812 
	C396.041718,16.113569 406.091217,16.065800 416.617279,16.077085 
	C417.197906,23.458527 417.391754,30.780899 417.392700,38.103294 
	C417.410950,181.017471 417.409363,323.931641 417.386932,466.845825 
	C417.386505,469.501801 417.084229,472.157715 416.879089,475.261108 
	C413.779327,480.481140 409.452271,482.368744 403.791870,482.058044 
	C398.179382,481.749939 392.538666,481.955109 386.449097,481.842834 
	C385.985565,462.257904 385.983276,442.765381 386.350159,422.717285 
	C390.916443,421.540497 393.266907,419.083038 393.361511,414.876556 
	C393.471283,409.996796 390.160461,408.019531 385.997009,406.972076 
	C385.995270,402.014557 385.993530,397.057068 386.354156,391.554871 
	C391.056732,390.203339 393.506439,387.624817 393.343689,383.182037 
	C393.177002,378.632294 390.107574,376.631348 385.986816,375.866089 
	C385.989197,370.601440 385.991577,365.336761 386.349121,359.528625 
	C390.893005,358.032227 393.453003,355.616913 393.283752,351.121552 
	C393.111206,346.537292 390.059601,344.621979 385.981110,343.842743 
	C385.986969,338.891327 385.992828,333.939941 386.341553,328.414246 
	C390.795929,326.792511 393.499573,324.481812 393.292603,319.922974 
	C393.085144,315.352875 390.171173,313.322296 385.972839,312.687622 
	C385.982422,307.444489 385.992004,302.201385 386.339111,296.364594 
	C390.854401,294.782074 393.548492,292.404907 393.356995,287.865479 
	C393.164185,283.294891 390.192993,281.250458 385.979584,280.616486 
	C385.990387,275.671326 386.001190,270.726135 386.316345,265.129517 
	C390.723938,263.743805 393.298737,261.413513 393.404510,257.159790 
	C393.525696,252.287537 390.263733,250.223633 386.027130,249.227905 
z"/>
<path fill="#8FBBC6" opacity="1.000000" stroke="none" 
	d="
M322.613800,16.069502 
	C328.501831,18.517529 330.572113,22.651852 330.039154,28.479584 
	C329.724152,31.923922 330.083221,35.424271 329.947479,38.891926 
	C329.731323,44.412594 326.379395,47.817284 320.840942,47.923191 
	C313.567383,48.062283 306.288910,47.947044 298.553375,47.908340 
	C305.138550,39.092060 305.178406,24.335909 298.075378,16.497248 
	C306.031250,16.110880 314.089844,16.042404 322.613800,16.069502 
z"/>
<path fill="#047AC9" opacity="1.000000" stroke="none" 
	d="
M385.534332,407.051392 
	C390.160461,408.019531 393.471283,409.996796 393.361511,414.876556 
	C393.266907,419.083038 390.916443,421.540497 386.349304,422.272644 
	C375.329010,422.319000 364.678833,422.203735 354.028564,422.198669 
	C309.911743,422.177582 265.794922,422.190674 221.678085,422.186554 
	C220.014069,422.186371 218.338669,422.252716 216.688324,422.088959 
	C212.853424,421.708435 210.579819,419.380829 210.105179,415.713654 
	C209.593750,411.762360 211.466354,408.840607 215.342804,407.747559 
	C217.373734,407.174835 219.611877,407.190948 221.756638,407.189392 
	C276.194946,407.149780 330.633301,407.143127 385.534332,407.051392 
z"/>
<path fill="#047AC9" opacity="1.000000" stroke="none" 
	d="
M385.517883,280.693115 
	C390.192993,281.250458 393.164185,283.294891 393.356995,287.865479 
	C393.548492,292.404907 390.854401,294.782074 386.336853,295.899414 
	C384.004028,295.962616 382.010925,295.840790 380.017853,295.840393 
	C327.243896,295.829895 274.469940,295.838257 221.695999,295.809296 
	C219.552597,295.808136 217.313995,295.807465 215.286545,295.225464 
	C211.407150,294.111877 209.571411,291.160553 210.112274,287.222015 
	C210.614639,283.563782 212.904846,281.248413 216.750031,280.902985 
	C218.402969,280.754547 220.076385,280.813812 221.740509,280.813293 
	C276.179077,280.796173 330.617645,280.783295 385.517883,280.693115 
z"/>
<path fill="#3C87D0" opacity="1.000000" stroke="none" 
	d="
M385.513367,217.241791 
	C390.042419,218.255478 393.403503,220.055298 393.304077,224.999008 
	C393.218079,229.277756 390.818512,231.573456 386.358765,232.413025 
	C349.321869,232.473389 312.659973,232.419144 275.998077,232.382614 
	C257.832916,232.364502 239.667755,232.383484 221.502594,232.371414 
	C219.838699,232.370316 218.154068,232.411621 216.515106,232.179214 
	C212.490173,231.608459 210.209885,229.127365 210.078232,225.136169 
	C209.945587,221.114746 212.154678,218.510391 216.099731,217.725372 
	C218.034897,217.340286 220.074341,217.395218 222.066711,217.393951 
	C276.395142,217.359238 330.723602,217.343018 385.513367,217.241791 
z"/>
<path fill="#3C87D0" opacity="1.000000" stroke="none" 
	d="
M385.517334,343.904907 
	C390.059601,344.621979 393.111206,346.537292 393.283752,351.121552 
	C393.453003,355.616913 390.893005,358.032227 386.342712,359.071167 
	C360.018890,359.104645 334.056671,359.029327 308.094421,359.005554 
	C279.133362,358.979065 250.172211,359.001556 221.211105,358.993774 
	C219.548508,358.993347 217.829742,359.167938 216.234512,358.817657 
	C212.384476,357.972168 210.049179,355.503448 210.063217,351.467316 
	C210.077271,347.426849 212.439163,344.970490 216.296555,344.176788 
	C218.059570,343.814087 219.943878,344.006226 221.773209,344.005646 
	C276.199982,343.988220 330.626770,343.978271 385.517334,343.904907 
z"/>
<path fill="#FB2E3D" opacity="1.000000" stroke="none" 
	d="
M206.212494,142.729889 
	C205.186264,145.287033 204.403015,147.483170 203.487656,149.622787 
	C201.382217,154.544067 197.373260,156.501297 193.158173,154.738937 
	C189.276276,153.115860 187.788040,149.023590 189.577133,144.130890 
	C192.261765,136.789093 195.122879,129.511826 197.906662,122.206261 
	C201.815308,111.948631 205.798111,101.718285 209.593323,91.418823 
	C211.196793,87.067314 213.866425,84.108414 218.643631,84.222565 
	C223.156662,84.330391 225.667236,87.219994 227.216583,91.382889 
	C233.714111,108.840935 240.393784,126.231110 246.944412,143.669556 
	C248.944992,148.995331 247.319519,153.422546 243.039856,154.891663 
	C238.554764,156.431290 234.590714,154.443359 232.967499,148.681244 
	C231.312698,142.806961 228.193542,140.799164 222.245209,141.586472 
	C217.020111,142.278030 211.683090,142.123840 206.212494,142.729889 
M214.972061,126.713516 
	C217.889648,126.713516 220.807236,126.713516 224.502823,126.713516 
	C222.397247,121.117149 220.585495,116.301750 218.407349,110.512512 
	C216.392502,115.762466 214.682373,120.035271 213.170654,124.377144 
	C212.969788,124.954079 213.776871,125.881950 214.972061,126.713516 
z"/>
<path fill="#FB2E3D" opacity="1.000000" stroke="none" 
	d="
M298.918823,87.970169 
	C301.079956,89.283478 303.034729,90.289131 304.672485,91.670586 
	C307.941620,94.428101 308.477386,98.799248 305.947388,101.919815 
	C303.281097,105.208511 299.989685,105.786331 296.155731,103.841675 
	C293.069794,102.276436 289.967804,100.607918 286.681732,99.623680 
	C284.759277,99.047867 282.234436,99.197540 280.398834,99.989838 
	C278.664978,100.738220 276.855682,102.559570 276.312714,104.294815 
	C276.039642,105.167412 278.255951,107.435555 279.777924,108.138191 
	C284.445068,110.292839 289.361450,111.899071 294.107422,113.893364 
	C305.457001,118.662537 310.789978,127.220352 308.981720,137.541809 
	C307.285522,147.223373 297.629181,154.831680 286.387665,155.242249 
	C276.414154,155.606506 267.708344,152.529785 260.664551,145.312515 
	C257.293060,141.858002 257.055359,137.768341 259.847137,134.622818 
	C262.811951,131.282364 267.207153,131.039536 270.887756,134.494858 
	C275.433655,138.762497 280.721527,141.211136 286.741058,139.897049 
	C289.479248,139.299286 291.694977,136.307968 294.147705,134.402359 
	C292.379395,132.259323 291.026764,129.317947 288.757751,128.136612 
	C283.775024,125.542465 278.249054,124.018394 273.089478,121.731308 
	C264.411377,117.884567 260.550110,111.888191 260.992584,103.570526 
	C261.416687,95.598526 266.802094,88.717110 274.914429,85.793167 
	C283.111267,82.838753 290.948547,84.086166 298.918823,87.970169 
z"/>
<path fill="#FB2E3D" opacity="1.000000" stroke="none" 
	d="
M324.436127,85.317200 
	C331.457977,83.092033 335.615295,85.914864 335.871765,92.742203 
	C335.982666,95.694168 335.890381,98.653778 335.890381,102.984726 
	C340.980194,98.321747 345.180603,94.469482 349.386261,90.622963 
	C350.737885,89.386803 352.041473,88.087631 353.474762,86.953369 
	C356.998169,84.165024 360.968353,84.289650 363.818756,87.181557 
	C366.814972,90.221382 366.918396,94.590538 363.567596,97.872864 
	C358.215454,103.115623 352.589386,108.078705 347.079865,113.160789 
	C345.247528,114.850975 343.417297,116.543480 342.378632,117.502861 
	C348.591461,124.299210 354.710938,131.024261 360.872925,137.710159 
	C362.225403,139.177643 363.786194,140.452225 365.151611,141.908844 
	C368.690796,145.684433 368.943665,149.807281 365.906250,152.987778 
	C362.914734,156.120239 358.489380,156.132584 354.802124,152.711349 
	C349.552460,147.840393 344.472626,142.786469 339.313141,137.818115 
	C338.493164,137.028534 337.635773,136.277802 335.895020,134.684967 
	C335.895020,139.138702 335.948914,142.684677 335.882812,146.228409 
	C335.773865,152.069153 332.948853,155.322525 328.169006,155.232071 
	C323.497589,155.143661 320.914612,152.127060 320.900391,146.419296 
	C320.855957,128.594559 320.760406,110.767738 321.028687,92.946907 
	C321.066193,90.457039 323.030975,87.996170 324.436127,85.317200 
z"/>
<path fill="#077CC9" opacity="1.000000" stroke="none" 
	d="
M210.025284,256.223053 
	C211.151505,251.143021 214.356567,249.497910 218.883728,249.501389 
	C253.986206,249.528336 289.088745,249.492584 324.191193,249.540588 
	C329.908997,249.548401 332.954895,252.187286 333.073669,256.784088 
	C333.196625,261.541656 330.014557,264.543549 324.128967,264.555817 
	C289.026703,264.628998 253.924042,264.634003 218.821793,264.546722 
	C212.953659,264.532135 210.948990,262.460236 210.025284,256.223053 
z"/>
<path fill="#3F89D1" opacity="1.000000" stroke="none" 
	d="
M310.998291,201.127335 
	C280.865540,201.127335 251.232285,201.128586 221.599045,201.123825 
	C219.935013,201.123550 218.254044,201.215256 216.610382,201.018417 
	C212.812378,200.563599 210.526428,198.246964 210.100632,194.552505 
	C209.642731,190.579483 211.603058,187.755310 215.441940,186.618057 
	C217.151138,186.111694 219.054642,186.133804 220.870102,186.132401 
	C254.665298,186.106522 288.460510,186.111053 322.255737,186.120667 
	C323.750854,186.121094 325.296265,186.007782 326.731506,186.331787 
	C330.789001,187.247711 333.248138,189.759064 333.002747,194.079224 
	C332.760193,198.349380 330.228485,200.839859 325.978638,201.040268 
	C321.161041,201.267426 316.325562,201.114807 310.998291,201.127335 
z"/>
<path fill="#3F89D1" opacity="1.000000" stroke="none" 
	d="
M282.000000,327.886932 
	C261.190399,327.886627 240.880737,327.906555 220.571259,327.853882 
	C218.606796,327.848785 216.517059,327.738861 214.706406,327.074982 
	C211.138947,325.766998 209.051727,322.608917 210.305359,319.219421 
	C211.228287,316.724060 214.181168,314.875854 216.478424,313.053009 
	C217.208206,312.473938 218.739166,312.877289 219.903503,312.877136 
	C254.363235,312.872253 288.822968,312.873138 323.282715,312.873810 
	C323.948578,312.873810 324.615845,312.854950 325.280029,312.890442 
	C330.050415,313.145020 333.032074,315.957275 333.056458,320.210297 
	C333.080750,324.448303 330.177979,327.616730 325.446960,327.791016 
	C318.796875,328.036041 312.131805,327.880096 305.473145,327.885529 
	C297.815430,327.891754 290.157715,327.886993 282.000000,327.886932 
z"/>
<path fill="#0179C8" opacity="1.000000" stroke="none" 
	d="
M319.886688,391.037598 
	C286.593842,391.037506 253.784927,391.038452 220.975998,391.033997 
	C219.477875,391.033783 217.942596,391.187317 216.488785,390.920105 
	C212.591904,390.203918 210.207932,387.828491 210.060135,383.801575 
	C209.911453,379.750916 212.193436,377.280731 215.999802,376.256378 
	C217.098618,375.960693 218.313477,376.042358 219.475159,376.042023 
	C254.116058,376.032227 288.756958,376.032501 323.397858,376.039429 
	C324.561371,376.039642 325.774414,375.928101 326.879486,376.206116 
	C330.914337,377.221130 333.301178,379.743622 333.014587,384.065552 
	C332.746277,388.112274 330.286224,390.402222 326.358887,390.936584 
	C324.394592,391.203857 322.368652,391.018311 319.886688,391.037598 
z"/>
<path fill="#FB303F" opacity="1.000000" stroke="none" 
	d="
M146.088715,90.387321 
	C147.501007,85.712090 150.595779,84.075836 154.899673,84.095627 
	C164.222000,84.138489 173.545044,84.058052 182.867050,84.128036 
	C188.601227,84.171082 192.051865,87.168053 191.976944,91.800926 
	C191.902817,96.384628 188.505463,99.052116 182.614502,99.130913 
	C180.815201,99.154984 179.015289,99.134636 176.772934,99.134636 
	C176.668198,101.348694 176.514832,103.117455 176.511902,104.886452 
	C176.488998,118.703720 176.573685,132.521683 176.457779,146.338043 
	C176.402603,152.913467 172.116119,156.617554 166.745377,154.942627 
	C162.295410,153.554886 161.406723,149.936905 161.412735,145.826401 
	C161.432449,132.342072 161.418900,118.857689 161.418167,105.373322 
	C161.418060,103.558144 161.418137,101.742973 161.418137,99.420143 
	C155.149994,98.345703 146.277725,101.641029 146.088715,90.387321 
z"/>
<path fill="#6CCB4A" opacity="1.000000" stroke="none" 
	d="
M160.871887,194.862640 
	C162.806549,193.000000 164.349976,191.200363 166.204865,189.818954 
	C169.444458,187.406372 172.869354,187.608231 175.733231,190.407898 
	C178.760132,193.366928 179.316757,197.239624 176.409302,200.281067 
	C167.202271,209.912354 157.775452,219.344299 148.159821,228.567886 
	C145.152939,231.452179 141.252487,231.016144 138.209488,228.116821 
	C132.903152,223.061081 127.686295,217.898743 122.662003,212.564423 
	C119.613625,209.327957 119.795189,205.088333 122.585815,202.195663 
	C125.491196,199.184067 129.931610,198.979019 133.305099,202.196014 
	C136.668091,205.403046 139.628387,209.032379 143.118179,212.864059 
	C149.420792,206.472336 155.020813,200.793121 160.871887,194.862640 
z"/>
<path fill="#6ACB47" opacity="1.000000" stroke="none" 
	d="
M137.454498,269.545776 
	C139.310669,271.708801 140.913940,273.619141 143.113541,276.240051 
	C148.996994,270.263214 154.186890,264.980377 159.390167,259.710724 
	C161.261215,257.815796 163.097961,255.879440 165.067688,254.091232 
	C168.487015,250.987045 172.909348,250.881744 175.826309,253.712540 
	C178.799911,256.598297 178.946503,261.040100 175.763809,264.438354 
	C171.214966,269.295319 166.413483,273.915863 161.712448,278.629913 
	C157.833817,282.519287 153.988983,286.443787 150.048157,290.269287 
	C145.370361,294.810211 141.683151,294.857086 137.119080,290.409210 
	C132.589691,285.995148 128.120865,281.516815 123.705849,276.988281 
	C119.839607,273.022614 119.482224,268.754211 122.586258,265.517578 
	C125.916458,262.045105 130.069916,262.376190 134.371582,266.473877 
	C135.335464,267.392059 136.259308,268.352264 137.454498,269.545776 
z"/>
<path fill="#3F89D1" opacity="1.000000" stroke="none" 
	d="
M130.629761,321.485565 
	C138.720566,320.983704 146.500809,320.357544 154.226364,320.765808 
	C155.944321,320.856598 158.629913,324.468506 158.861740,326.670593 
	C159.503479,332.766327 159.148239,338.974579 159.063049,345.136627 
	C159.006958,349.193817 156.507278,351.324554 152.740265,351.474335 
	C146.588760,351.718903 140.360748,352.020996 134.289688,351.278870 
	C132.032623,351.002991 128.570465,348.030029 128.344986,345.989929 
	C127.599579,339.246002 127.967873,332.362854 128.190125,325.542297 
	C128.232178,324.251434 129.563202,323.002563 130.629761,321.485565 
z"/>
<path fill="#3E88D0" opacity="1.000000" stroke="none" 
	d="
M159.108612,396.079529 
	C159.106003,400.222015 159.074799,403.878784 159.107849,407.535004 
	C159.150299,412.234131 156.740799,414.709229 152.164032,414.828491 
	C146.351059,414.979980 140.526291,415.002319 134.715561,414.809814 
	C130.397339,414.666748 128.016083,412.241516 127.999535,407.798187 
	C127.977882,401.981110 127.955368,396.163513 128.010147,390.346832 
	C128.049744,386.141144 130.287247,383.820160 134.459930,383.703033 
	C139.774399,383.553833 145.095779,383.583374 150.413376,383.629425 
	C157.485641,383.690643 159.055923,385.351807 159.106659,392.601837 
	C159.113632,393.599060 159.108246,394.596313 159.108612,396.079529 
z"/>
<path fill="#077CC9" opacity="1.000000" stroke="none" 
	d="
M385.566833,249.336243 
	C390.263733,250.223633 393.525696,252.287537 393.404510,257.159790 
	C393.298737,261.413513 390.723938,263.743805 386.319153,264.653259 
	C377.729889,264.752045 369.419952,264.997711 361.166443,264.427094 
	C358.218811,264.223297 354.453979,262.795197 352.732330,260.610046 
	C349.116272,256.020294 352.925385,249.790955 359.234222,249.598373 
	C367.851868,249.335327 376.481812,249.476608 385.566833,249.336243 
z"/>
<path fill="#037AC9" opacity="1.000000" stroke="none" 
	d="
M385.523438,375.934937 
	C390.107574,376.631348 393.177002,378.632294 393.343689,383.182037 
	C393.506439,387.624817 391.056732,390.203339 386.349670,391.100037 
	C377.536407,391.139801 369.089722,391.113647 360.643646,391.031403 
	C354.862122,390.975098 351.495453,388.169373 351.511200,383.524567 
	C351.526825,378.921753 354.951599,376.081848 360.706757,376.042664 
	C368.824219,375.987396 376.942261,376.012817 385.523438,375.934937 
z"/>
<path fill="#3F89D1" opacity="1.000000" stroke="none" 
	d="
M385.510498,312.756287 
	C390.171173,313.322296 393.085144,315.352875 393.292603,319.922974 
	C393.499573,324.481812 390.795929,326.792511 386.337799,327.951904 
	C377.663269,328.004547 369.334961,327.977692 361.007568,327.875000 
	C354.948303,327.800262 351.390411,324.792725 351.543243,320.005493 
	C351.689972,315.409088 354.989014,312.911499 361.054504,312.880585 
	C369.052277,312.839783 377.050232,312.841522 385.510498,312.756287 
z"/>
<path fill="#3F89D1" opacity="1.000000" stroke="none" 
	d="
M385.527039,186.002533 
	C390.160858,186.955658 393.400360,188.936203 393.298584,193.814621 
	C393.210449,198.039658 390.853119,200.432434 386.343811,201.209824 
	C377.478394,201.246353 368.983795,201.209473 360.489807,201.115067 
	C354.890808,201.052826 351.651062,198.408264 351.542542,193.923386 
	C351.430145,189.279083 354.870300,186.210220 360.570587,186.138824 
	C368.733795,186.036560 376.898956,186.086395 385.527039,186.002533 
z"/>
<path fill="#EFE4E6" opacity="1.000000" stroke="none" 
	d="
M214.544617,126.680405 
	C213.776871,125.881950 212.969788,124.954079 213.170654,124.377144 
	C214.682373,120.035271 216.392502,115.762466 218.407349,110.512512 
	C220.585495,116.301750 222.397247,121.117149 224.502823,126.713516 
	C220.807236,126.713516 217.889648,126.713516 214.544617,126.680405 
z"/>
</svg>